<mxfile host="app.diagrams.net" modified="2023-02-21T00:07:02.628Z" agent="5.0 (Windows NT 10.0; Win64; x64) AppleWebKit/537.36 (KHTML, like Gecko) Chrome/109.0.0.0 Safari/537.36" etag="GdwS98ALYXA4dMoR6-Wl" version="20.8.20" type="github">
  <diagram id="R2lEEEUBdFMjLlhIrx00" name="Page-1">
    <mxGraphModel dx="880" dy="395" grid="1" gridSize="10" guides="1" tooltips="1" connect="1" arrows="1" fold="1" page="1" pageScale="1" pageWidth="850" pageHeight="1100" math="0" shadow="0" extFonts="Permanent Marker^https://fonts.googleapis.com/css?family=Permanent+Marker">
      <root>
        <mxCell id="0" />
        <mxCell id="1" parent="0" />
        <mxCell id="xx8JCHiFy8lJPD8X3YAm-1" value="Libro" style="rounded=1;arcSize=10;whiteSpace=wrap;html=1;align=center;" parent="1" vertex="1">
          <mxGeometry x="180" y="220" width="100" height="40" as="geometry" />
        </mxCell>
        <mxCell id="xx8JCHiFy8lJPD8X3YAm-2" value="&lt;span style=&quot;border-bottom: 1px dotted&quot;&gt;ISBN&lt;/span&gt;" style="ellipse;whiteSpace=wrap;html=1;align=center;" parent="1" vertex="1">
          <mxGeometry x="100" y="160" width="100" height="40" as="geometry" />
        </mxCell>
        <mxCell id="xx8JCHiFy8lJPD8X3YAm-3" value="" style="endArrow=none;html=1;rounded=0;exitX=0.5;exitY=1;exitDx=0;exitDy=0;entryX=0;entryY=0.25;entryDx=0;entryDy=0;" parent="1" source="xx8JCHiFy8lJPD8X3YAm-2" target="xx8JCHiFy8lJPD8X3YAm-1" edge="1">
          <mxGeometry relative="1" as="geometry">
            <mxPoint x="330" y="240" as="sourcePoint" />
            <mxPoint x="490" y="240" as="targetPoint" />
          </mxGeometry>
        </mxCell>
        <mxCell id="xx8JCHiFy8lJPD8X3YAm-4" value="&lt;span style=&quot;border-bottom: 1px dotted&quot;&gt;Titulo&lt;/span&gt;" style="ellipse;whiteSpace=wrap;html=1;align=center;" parent="1" vertex="1">
          <mxGeometry x="180" y="130" width="100" height="40" as="geometry" />
        </mxCell>
        <mxCell id="xx8JCHiFy8lJPD8X3YAm-6" value="" style="endArrow=none;html=1;rounded=0;exitX=0.5;exitY=1;exitDx=0;exitDy=0;entryX=0.25;entryY=0;entryDx=0;entryDy=0;" parent="1" source="xx8JCHiFy8lJPD8X3YAm-4" target="xx8JCHiFy8lJPD8X3YAm-1" edge="1">
          <mxGeometry relative="1" as="geometry">
            <mxPoint x="330" y="240" as="sourcePoint" />
            <mxPoint x="490" y="240" as="targetPoint" />
          </mxGeometry>
        </mxCell>
        <mxCell id="xx8JCHiFy8lJPD8X3YAm-7" value="&lt;span style=&quot;border-bottom: 1px dotted&quot;&gt;Precio&lt;/span&gt;" style="ellipse;whiteSpace=wrap;html=1;align=center;" parent="1" vertex="1">
          <mxGeometry x="280" y="160" width="100" height="40" as="geometry" />
        </mxCell>
        <mxCell id="xx8JCHiFy8lJPD8X3YAm-8" value="" style="endArrow=none;html=1;rounded=0;exitX=0.5;exitY=1;exitDx=0;exitDy=0;entryX=0.25;entryY=0;entryDx=0;entryDy=0;" parent="1" source="xx8JCHiFy8lJPD8X3YAm-7" edge="1">
          <mxGeometry relative="1" as="geometry">
            <mxPoint x="380" y="240" as="sourcePoint" />
            <mxPoint x="255" y="220" as="targetPoint" />
          </mxGeometry>
        </mxCell>
        <mxCell id="xx8JCHiFy8lJPD8X3YAm-10" value="" style="endArrow=none;html=1;rounded=0;entryX=1;entryY=0.5;entryDx=0;entryDy=0;" parent="1" target="xx8JCHiFy8lJPD8X3YAm-1" edge="1">
          <mxGeometry relative="1" as="geometry">
            <mxPoint x="380" y="240" as="sourcePoint" />
            <mxPoint x="310" y="290" as="targetPoint" />
          </mxGeometry>
        </mxCell>
        <mxCell id="xx8JCHiFy8lJPD8X3YAm-17" value="&lt;span style=&quot;border-bottom: 1px dotted&quot;&gt;Titulo&lt;/span&gt;" style="ellipse;whiteSpace=wrap;html=1;align=center;" parent="1" vertex="1">
          <mxGeometry x="180" y="130" width="100" height="40" as="geometry" />
        </mxCell>
        <mxCell id="xx8JCHiFy8lJPD8X3YAm-35" value="Formato" style="rounded=1;arcSize=10;whiteSpace=wrap;html=1;align=center;fillColor=#d5e8d4;strokeColor=#82b366;" parent="1" vertex="1">
          <mxGeometry x="260" y="545" width="100" height="40" as="geometry" />
        </mxCell>
        <mxCell id="xx8JCHiFy8lJPD8X3YAm-38" value="" style="endArrow=none;html=1;rounded=0;" parent="1" source="ZatRmtBqE8KDC4G2VJVv-5" edge="1">
          <mxGeometry relative="1" as="geometry">
            <mxPoint x="230" y="564.5" as="sourcePoint" />
            <mxPoint x="260" y="565" as="targetPoint" />
          </mxGeometry>
        </mxCell>
        <mxCell id="xx8JCHiFy8lJPD8X3YAm-40" value="Libro" style="rounded=1;arcSize=10;whiteSpace=wrap;html=1;align=center;fillColor=#d5e8d4;strokeColor=#82b366;" parent="1" vertex="1">
          <mxGeometry x="180" y="220" width="100" height="40" as="geometry" />
        </mxCell>
        <mxCell id="xx8JCHiFy8lJPD8X3YAm-43" value="&lt;span style=&quot;border-bottom: 1px dotted&quot;&gt;ISBN&lt;/span&gt;" style="ellipse;whiteSpace=wrap;html=1;align=center;" parent="1" vertex="1">
          <mxGeometry x="100" y="160" width="100" height="40" as="geometry" />
        </mxCell>
        <mxCell id="xx8JCHiFy8lJPD8X3YAm-44" value="&lt;span style=&quot;border-bottom: 1px dotted&quot;&gt;Titulo&lt;/span&gt;" style="ellipse;whiteSpace=wrap;html=1;align=center;" parent="1" vertex="1">
          <mxGeometry x="180" y="130" width="100" height="40" as="geometry" />
        </mxCell>
        <mxCell id="xx8JCHiFy8lJPD8X3YAm-45" value="&lt;span style=&quot;border-bottom: 1px dotted&quot;&gt;Precio&lt;/span&gt;" style="ellipse;whiteSpace=wrap;html=1;align=center;" parent="1" vertex="1">
          <mxGeometry x="280" y="160" width="100" height="40" as="geometry" />
        </mxCell>
        <mxCell id="xx8JCHiFy8lJPD8X3YAm-53" value="&lt;span style=&quot;border-bottom: 1px dotted&quot;&gt;ISBN&lt;/span&gt;" style="ellipse;whiteSpace=wrap;html=1;align=center;fillColor=#fff2cc;strokeColor=#d6b656;" parent="1" vertex="1">
          <mxGeometry x="100" y="160" width="100" height="40" as="geometry" />
        </mxCell>
        <mxCell id="xx8JCHiFy8lJPD8X3YAm-54" value="&lt;span style=&quot;border-bottom: 1px dotted&quot;&gt;Titulo&lt;/span&gt;" style="ellipse;whiteSpace=wrap;html=1;align=center;fillColor=#fff2cc;strokeColor=#d6b656;" parent="1" vertex="1">
          <mxGeometry x="180" y="130" width="100" height="40" as="geometry" />
        </mxCell>
        <mxCell id="xx8JCHiFy8lJPD8X3YAm-55" value="&lt;span style=&quot;border-bottom: 1px dotted&quot;&gt;Precio&lt;/span&gt;" style="ellipse;whiteSpace=wrap;html=1;align=center;fillColor=#fff2cc;strokeColor=#d6b656;" parent="1" vertex="1">
          <mxGeometry x="280" y="160" width="100" height="40" as="geometry" />
        </mxCell>
        <mxCell id="xx8JCHiFy8lJPD8X3YAm-65" value="Tienda Libros" style="swimlane;startSize=0;fontSize=14;" parent="1" vertex="1">
          <mxGeometry x="40" y="120" width="620" height="540" as="geometry" />
        </mxCell>
        <mxCell id="ZatRmtBqE8KDC4G2VJVv-1" value="&lt;span style=&quot;border-bottom: 1px dotted&quot;&gt;Id&lt;/span&gt;" style="ellipse;whiteSpace=wrap;html=1;align=center;fillColor=#fff2cc;strokeColor=#d6b656;" parent="xx8JCHiFy8lJPD8X3YAm-65" vertex="1">
          <mxGeometry x="200" y="160" width="100" height="40" as="geometry" />
        </mxCell>
        <mxCell id="ZatRmtBqE8KDC4G2VJVv-5" value="&lt;span style=&quot;border-bottom: 1px dotted&quot;&gt;Id&lt;/span&gt;" style="ellipse;whiteSpace=wrap;html=1;align=center;fillColor=#fff2cc;strokeColor=#d6b656;" parent="xx8JCHiFy8lJPD8X3YAm-65" vertex="1">
          <mxGeometry x="60" y="380" width="100" height="40" as="geometry" />
        </mxCell>
        <mxCell id="xx8JCHiFy8lJPD8X3YAm-15" value="LibroDetalle" style="rounded=1;arcSize=10;whiteSpace=wrap;html=1;align=center;fillColor=#d5e8d4;strokeColor=#82b366;" parent="xx8JCHiFy8lJPD8X3YAm-65" vertex="1">
          <mxGeometry x="300" y="280" width="100" height="40" as="geometry" />
        </mxCell>
        <mxCell id="xx8JCHiFy8lJPD8X3YAm-18" value="&lt;span style=&quot;border-bottom: 1px dotted&quot;&gt;ISBN&lt;/span&gt;" style="ellipse;whiteSpace=wrap;html=1;align=center;" parent="xx8JCHiFy8lJPD8X3YAm-65" vertex="1">
          <mxGeometry x="255" y="210" width="100" height="40" as="geometry" />
        </mxCell>
        <mxCell id="xx8JCHiFy8lJPD8X3YAm-19" value="" style="endArrow=none;html=1;rounded=0;exitX=0.5;exitY=1;exitDx=0;exitDy=0;entryX=0.5;entryY=0;entryDx=0;entryDy=0;" parent="xx8JCHiFy8lJPD8X3YAm-65" source="xx8JCHiFy8lJPD8X3YAm-18" target="xx8JCHiFy8lJPD8X3YAm-15" edge="1">
          <mxGeometry relative="1" as="geometry">
            <mxPoint x="250" y="210" as="sourcePoint" />
            <mxPoint x="410" y="210" as="targetPoint" />
          </mxGeometry>
        </mxCell>
        <mxCell id="xx8JCHiFy8lJPD8X3YAm-20" value="&lt;span style=&quot;border-bottom: 1px dotted&quot;&gt;Resumen&lt;/span&gt;" style="ellipse;whiteSpace=wrap;html=1;align=center;" parent="xx8JCHiFy8lJPD8X3YAm-65" vertex="1">
          <mxGeometry x="390" y="200" width="100" height="40" as="geometry" />
        </mxCell>
        <mxCell id="xx8JCHiFy8lJPD8X3YAm-21" value="" style="endArrow=none;html=1;rounded=0;exitX=0.5;exitY=1;exitDx=0;exitDy=0;entryX=0.68;entryY=0.025;entryDx=0;entryDy=0;entryPerimeter=0;" parent="xx8JCHiFy8lJPD8X3YAm-65" target="xx8JCHiFy8lJPD8X3YAm-15" edge="1">
          <mxGeometry relative="1" as="geometry">
            <mxPoint x="420" y="240" as="sourcePoint" />
            <mxPoint x="465" y="270" as="targetPoint" />
          </mxGeometry>
        </mxCell>
        <mxCell id="xx8JCHiFy8lJPD8X3YAm-22" value="&lt;span style=&quot;border-bottom: 1px dotted&quot;&gt;ResumenLink&lt;/span&gt;" style="ellipse;whiteSpace=wrap;html=1;align=center;" parent="xx8JCHiFy8lJPD8X3YAm-65" vertex="1">
          <mxGeometry x="442" y="250" width="100" height="40" as="geometry" />
        </mxCell>
        <mxCell id="xx8JCHiFy8lJPD8X3YAm-23" value="" style="endArrow=none;html=1;rounded=0;entryX=1;entryY=0.5;entryDx=0;entryDy=0;exitX=0;exitY=0.5;exitDx=0;exitDy=0;" parent="xx8JCHiFy8lJPD8X3YAm-65" source="xx8JCHiFy8lJPD8X3YAm-59" target="xx8JCHiFy8lJPD8X3YAm-15" edge="1">
          <mxGeometry relative="1" as="geometry">
            <mxPoint x="457" y="280" as="sourcePoint" />
            <mxPoint x="440" y="331" as="targetPoint" />
          </mxGeometry>
        </mxCell>
        <mxCell id="xx8JCHiFy8lJPD8X3YAm-25" value="" style="endArrow=none;html=1;rounded=0;entryX=1;entryY=0.75;entryDx=0;entryDy=0;" parent="xx8JCHiFy8lJPD8X3YAm-65" target="xx8JCHiFy8lJPD8X3YAm-15" edge="1">
          <mxGeometry relative="1" as="geometry">
            <mxPoint x="450" y="340" as="sourcePoint" />
            <mxPoint x="410" y="310" as="targetPoint" />
          </mxGeometry>
        </mxCell>
        <mxCell id="xx8JCHiFy8lJPD8X3YAm-26" value="&lt;span style=&quot;border-bottom: 1px dotted&quot;&gt;FechaPublicacion&lt;/span&gt;" style="ellipse;whiteSpace=wrap;html=1;align=center;fillColor=#fff2cc;strokeColor=#d6b656;" parent="xx8JCHiFy8lJPD8X3YAm-65" vertex="1">
          <mxGeometry x="210" y="335" width="100" height="40" as="geometry" />
        </mxCell>
        <mxCell id="xx8JCHiFy8lJPD8X3YAm-27" value="" style="endArrow=none;html=1;rounded=0;exitX=0.5;exitY=1;exitDx=0;exitDy=0;" parent="xx8JCHiFy8lJPD8X3YAm-65" target="xx8JCHiFy8lJPD8X3YAm-26" edge="1">
          <mxGeometry relative="1" as="geometry">
            <mxPoint x="350" y="320" as="sourcePoint" />
            <mxPoint x="395" y="350" as="targetPoint" />
          </mxGeometry>
        </mxCell>
        <mxCell id="xx8JCHiFy8lJPD8X3YAm-28" value="&lt;span style=&quot;border-bottom: 1px dotted&quot;&gt;Editorial&lt;/span&gt;" style="ellipse;whiteSpace=wrap;html=1;align=center;" parent="xx8JCHiFy8lJPD8X3YAm-65" vertex="1">
          <mxGeometry x="420" y="375" width="100" height="40" as="geometry" />
        </mxCell>
        <mxCell id="xx8JCHiFy8lJPD8X3YAm-29" value="" style="endArrow=none;html=1;rounded=0;exitX=0;exitY=0.325;exitDx=0;exitDy=0;entryX=0.75;entryY=1;entryDx=0;entryDy=0;exitPerimeter=0;" parent="xx8JCHiFy8lJPD8X3YAm-65" source="xx8JCHiFy8lJPD8X3YAm-28" target="xx8JCHiFy8lJPD8X3YAm-15" edge="1">
          <mxGeometry relative="1" as="geometry">
            <mxPoint x="442" y="335" as="sourcePoint" />
            <mxPoint x="390" y="365" as="targetPoint" />
          </mxGeometry>
        </mxCell>
        <mxCell id="xx8JCHiFy8lJPD8X3YAm-39" style="edgeStyle=none;rounded=0;orthogonalLoop=1;jettySize=auto;html=1;" parent="xx8JCHiFy8lJPD8X3YAm-65" edge="1">
          <mxGeometry relative="1" as="geometry">
            <mxPoint x="180" y="355" as="targetPoint" />
            <mxPoint x="180" y="355" as="sourcePoint" />
          </mxGeometry>
        </mxCell>
        <mxCell id="xx8JCHiFy8lJPD8X3YAm-47" value="&lt;span style=&quot;border-bottom: 1px dotted&quot;&gt;ISBN&lt;/span&gt;" style="ellipse;whiteSpace=wrap;html=1;align=center;" parent="xx8JCHiFy8lJPD8X3YAm-65" vertex="1">
          <mxGeometry x="255" y="210" width="100" height="40" as="geometry" />
        </mxCell>
        <mxCell id="xx8JCHiFy8lJPD8X3YAm-48" value="&lt;span style=&quot;border-bottom: 1px dotted&quot;&gt;Resumen&lt;/span&gt;" style="ellipse;whiteSpace=wrap;html=1;align=center;" parent="xx8JCHiFy8lJPD8X3YAm-65" vertex="1">
          <mxGeometry x="390" y="200" width="100" height="40" as="geometry" />
        </mxCell>
        <mxCell id="xx8JCHiFy8lJPD8X3YAm-49" value="&lt;span style=&quot;border-bottom: 1px dotted&quot;&gt;ResumenLink&lt;/span&gt;" style="ellipse;whiteSpace=wrap;html=1;align=center;" parent="xx8JCHiFy8lJPD8X3YAm-65" vertex="1">
          <mxGeometry x="442" y="250" width="100" height="40" as="geometry" />
        </mxCell>
        <mxCell id="xx8JCHiFy8lJPD8X3YAm-51" value="&lt;span style=&quot;border-bottom: 1px dotted&quot;&gt;Editorial&lt;/span&gt;" style="ellipse;whiteSpace=wrap;html=1;align=center;" parent="xx8JCHiFy8lJPD8X3YAm-65" vertex="1">
          <mxGeometry x="420" y="375" width="100" height="40" as="geometry" />
        </mxCell>
        <mxCell id="xx8JCHiFy8lJPD8X3YAm-57" value="&lt;span style=&quot;border-bottom: 1px dotted&quot;&gt;ISBN&lt;/span&gt;" style="ellipse;whiteSpace=wrap;html=1;align=center;fillColor=#fff2cc;strokeColor=#d6b656;" parent="xx8JCHiFy8lJPD8X3YAm-65" vertex="1">
          <mxGeometry x="255" y="210" width="100" height="40" as="geometry" />
        </mxCell>
        <mxCell id="xx8JCHiFy8lJPD8X3YAm-58" value="&lt;span style=&quot;border-bottom: 1px dotted&quot;&gt;Resumen&lt;/span&gt;" style="ellipse;whiteSpace=wrap;html=1;align=center;fillColor=#fff2cc;strokeColor=#d6b656;" parent="xx8JCHiFy8lJPD8X3YAm-65" vertex="1">
          <mxGeometry x="390" y="200" width="100" height="40" as="geometry" />
        </mxCell>
        <mxCell id="xx8JCHiFy8lJPD8X3YAm-59" value="&lt;span style=&quot;border-bottom: 1px dotted&quot;&gt;ResumenLink&lt;/span&gt;" style="ellipse;whiteSpace=wrap;html=1;align=center;fillColor=#fff2cc;strokeColor=#d6b656;" parent="xx8JCHiFy8lJPD8X3YAm-65" vertex="1">
          <mxGeometry x="442" y="250" width="100" height="40" as="geometry" />
        </mxCell>
        <mxCell id="xx8JCHiFy8lJPD8X3YAm-60" value="&lt;span style=&quot;border-bottom: 1px dotted&quot;&gt;Edicion&lt;/span&gt;" style="ellipse;whiteSpace=wrap;html=1;align=center;fillColor=#fff2cc;strokeColor=#d6b656;" parent="xx8JCHiFy8lJPD8X3YAm-65" vertex="1">
          <mxGeometry x="442" y="320" width="100" height="40" as="geometry" />
        </mxCell>
        <mxCell id="xx8JCHiFy8lJPD8X3YAm-61" value="&lt;span style=&quot;border-bottom: 1px dotted&quot;&gt;Editorial&lt;/span&gt;" style="ellipse;whiteSpace=wrap;html=1;align=center;fillColor=#fff2cc;strokeColor=#d6b656;" parent="xx8JCHiFy8lJPD8X3YAm-65" vertex="1">
          <mxGeometry x="420" y="375" width="100" height="40" as="geometry" />
        </mxCell>
        <mxCell id="ZatRmtBqE8KDC4G2VJVv-3" value="&lt;span style=&quot;border-bottom: 1px dotted&quot;&gt;Id&lt;/span&gt;" style="ellipse;whiteSpace=wrap;html=1;align=center;fillColor=#fff2cc;strokeColor=#d6b656;" parent="xx8JCHiFy8lJPD8X3YAm-65" vertex="1">
          <mxGeometry x="190" y="260" width="100" height="40" as="geometry" />
        </mxCell>
        <mxCell id="ZatRmtBqE8KDC4G2VJVv-4" value="" style="endArrow=none;html=1;rounded=0;entryX=0;entryY=0.25;entryDx=0;entryDy=0;" parent="xx8JCHiFy8lJPD8X3YAm-65" source="ZatRmtBqE8KDC4G2VJVv-3" target="xx8JCHiFy8lJPD8X3YAm-15" edge="1">
          <mxGeometry relative="1" as="geometry">
            <mxPoint x="315" y="260" as="sourcePoint" />
            <mxPoint x="360" y="290" as="targetPoint" />
          </mxGeometry>
        </mxCell>
        <mxCell id="xx8JCHiFy8lJPD8X3YAm-36" value="&lt;span style=&quot;border-bottom: 1px dotted&quot;&gt;Nombre&lt;/span&gt;" style="ellipse;whiteSpace=wrap;html=1;align=center;fillColor=#fff2cc;strokeColor=#d6b656;" parent="xx8JCHiFy8lJPD8X3YAm-65" vertex="1">
          <mxGeometry x="60" y="460" width="100" height="40" as="geometry" />
        </mxCell>
        <mxCell id="xx8JCHiFy8lJPD8X3YAm-41" value="Genero" style="rounded=1;arcSize=10;whiteSpace=wrap;html=1;align=center;fillColor=#d5e8d4;strokeColor=#82b366;" parent="xx8JCHiFy8lJPD8X3YAm-65" vertex="1">
          <mxGeometry x="285" y="100" width="100" height="40" as="geometry" />
        </mxCell>
        <mxCell id="ZatRmtBqE8KDC4G2VJVv-11" value="&lt;span style=&quot;border-bottom: 1px dotted&quot;&gt;Id&lt;/span&gt;" style="ellipse;whiteSpace=wrap;html=1;align=center;fillColor=#fff2cc;strokeColor=#d6b656;" parent="xx8JCHiFy8lJPD8X3YAm-65" vertex="1">
          <mxGeometry x="420" y="60" width="100" height="40" as="geometry" />
        </mxCell>
        <mxCell id="xx8JCHiFy8lJPD8X3YAm-56" value="&lt;span style=&quot;border-bottom: 1px dotted&quot;&gt;Nombre&lt;/span&gt;" style="ellipse;whiteSpace=wrap;html=1;align=center;fillColor=#fff2cc;strokeColor=#d6b656;" parent="xx8JCHiFy8lJPD8X3YAm-65" vertex="1">
          <mxGeometry x="420" y="130" width="100" height="40" as="geometry" />
        </mxCell>
        <mxCell id="ZatRmtBqE8KDC4G2VJVv-10" value="" style="endArrow=none;html=1;rounded=0;" parent="xx8JCHiFy8lJPD8X3YAm-65" edge="1">
          <mxGeometry relative="1" as="geometry">
            <mxPoint x="420" y="150" as="sourcePoint" />
            <mxPoint x="380" y="120" as="targetPoint" />
          </mxGeometry>
        </mxCell>
        <mxCell id="klHyDaI2BTgXFFpjh4IZ-3" value="Idioma" style="rounded=1;arcSize=10;whiteSpace=wrap;html=1;align=center;fillColor=#d5e8d4;strokeColor=#82b366;" vertex="1" parent="xx8JCHiFy8lJPD8X3YAm-65">
          <mxGeometry x="40" y="250" width="100" height="40" as="geometry" />
        </mxCell>
        <mxCell id="xx8JCHiFy8lJPD8X3YAm-52" value="&lt;span style=&quot;border-bottom: 1px dotted&quot;&gt;PortadaLink&lt;/span&gt;" style="ellipse;whiteSpace=wrap;html=1;align=center;fillColor=#fff2cc;strokeColor=#d6b656;" parent="xx8JCHiFy8lJPD8X3YAm-65" vertex="1">
          <mxGeometry x="10" y="100" width="100" height="40" as="geometry" />
        </mxCell>
        <mxCell id="klHyDaI2BTgXFFpjh4IZ-6" value="&lt;span style=&quot;border-bottom: 1px dotted&quot;&gt;Id&lt;/span&gt;" style="ellipse;whiteSpace=wrap;html=1;align=center;fillColor=#fff2cc;strokeColor=#d6b656;" vertex="1" parent="xx8JCHiFy8lJPD8X3YAm-65">
          <mxGeometry x="40" y="310" width="100" height="40" as="geometry" />
        </mxCell>
        <mxCell id="klHyDaI2BTgXFFpjh4IZ-7" value="" style="endArrow=none;html=1;rounded=0;exitX=0.5;exitY=1;exitDx=0;exitDy=0;" edge="1" parent="xx8JCHiFy8lJPD8X3YAm-65" source="klHyDaI2BTgXFFpjh4IZ-3" target="klHyDaI2BTgXFFpjh4IZ-6">
          <mxGeometry relative="1" as="geometry">
            <mxPoint x="100" y="260" as="sourcePoint" />
            <mxPoint x="175" y="150" as="targetPoint" />
          </mxGeometry>
        </mxCell>
        <mxCell id="klHyDaI2BTgXFFpjh4IZ-8" value="&lt;span style=&quot;border-bottom: 1px dotted&quot;&gt;Nombre&lt;/span&gt;" style="ellipse;whiteSpace=wrap;html=1;align=center;fillColor=#fff2cc;strokeColor=#d6b656;" vertex="1" parent="xx8JCHiFy8lJPD8X3YAm-65">
          <mxGeometry x="10" y="180" width="100" height="40" as="geometry" />
        </mxCell>
        <mxCell id="klHyDaI2BTgXFFpjh4IZ-9" value="" style="endArrow=none;html=1;rounded=0;" edge="1" parent="xx8JCHiFy8lJPD8X3YAm-65" source="klHyDaI2BTgXFFpjh4IZ-3" target="klHyDaI2BTgXFFpjh4IZ-8">
          <mxGeometry relative="1" as="geometry">
            <mxPoint x="100" y="300" as="sourcePoint" />
            <mxPoint x="100" y="320" as="targetPoint" />
          </mxGeometry>
        </mxCell>
        <mxCell id="ZatRmtBqE8KDC4G2VJVv-7" value="" style="endArrow=none;html=1;rounded=0;entryX=0;entryY=0.75;entryDx=0;entryDy=0;entryPerimeter=0;edgeStyle=orthogonalEdgeStyle;" parent="1" source="xx8JCHiFy8lJPD8X3YAm-40" target="xx8JCHiFy8lJPD8X3YAm-15" edge="1">
          <mxGeometry relative="1" as="geometry">
            <mxPoint x="371" y="412" as="sourcePoint" />
            <mxPoint x="400" y="420" as="targetPoint" />
            <Array as="points">
              <mxPoint x="230" y="430" />
            </Array>
          </mxGeometry>
        </mxCell>
        <mxCell id="ZatRmtBqE8KDC4G2VJVv-8" value="" style="endArrow=none;html=1;rounded=0;edgeStyle=orthogonalEdgeStyle;exitX=0.59;exitY=1;exitDx=0;exitDy=0;exitPerimeter=0;" parent="1" source="xx8JCHiFy8lJPD8X3YAm-15" target="xx8JCHiFy8lJPD8X3YAm-35" edge="1">
          <mxGeometry relative="1" as="geometry">
            <mxPoint x="450" y="450" as="sourcePoint" />
            <mxPoint x="396" y="471" as="targetPoint" />
            <Array as="points">
              <mxPoint x="400" y="440" />
              <mxPoint x="400" y="565" />
            </Array>
          </mxGeometry>
        </mxCell>
        <mxCell id="ZatRmtBqE8KDC4G2VJVv-9" value="" style="endArrow=none;html=1;rounded=0;" parent="1" source="xx8JCHiFy8lJPD8X3YAm-36" edge="1">
          <mxGeometry relative="1" as="geometry">
            <mxPoint x="237" y="539" as="sourcePoint" />
            <mxPoint x="260" y="570" as="targetPoint" />
          </mxGeometry>
        </mxCell>
        <mxCell id="ZatRmtBqE8KDC4G2VJVv-12" value="" style="endArrow=none;html=1;rounded=0;" parent="1" source="ZatRmtBqE8KDC4G2VJVv-11" edge="1">
          <mxGeometry relative="1" as="geometry">
            <mxPoint x="520" y="280" as="sourcePoint" />
            <mxPoint x="470" y="240" as="targetPoint" />
          </mxGeometry>
        </mxCell>
        <mxCell id="klHyDaI2BTgXFFpjh4IZ-2" value="" style="endArrow=none;html=1;rounded=0;" edge="1" parent="1" source="xx8JCHiFy8lJPD8X3YAm-52" target="xx8JCHiFy8lJPD8X3YAm-40">
          <mxGeometry relative="1" as="geometry">
            <mxPoint x="150" y="240" as="sourcePoint" />
            <mxPoint x="190" y="240" as="targetPoint" />
          </mxGeometry>
        </mxCell>
        <mxCell id="ZatRmtBqE8KDC4G2VJVv-2" value="" style="endArrow=none;html=1;rounded=0;entryX=0.75;entryY=1;entryDx=0;entryDy=0;" parent="1" source="ZatRmtBqE8KDC4G2VJVv-1" edge="1" target="xx8JCHiFy8lJPD8X3YAm-40">
          <mxGeometry relative="1" as="geometry">
            <mxPoint x="300" y="270" as="sourcePoint" />
            <mxPoint x="200" y="260" as="targetPoint" />
          </mxGeometry>
        </mxCell>
        <mxCell id="klHyDaI2BTgXFFpjh4IZ-5" value="" style="endArrow=none;html=1;rounded=0;exitX=0.5;exitY=0;exitDx=0;exitDy=0;entryX=0.25;entryY=1;entryDx=0;entryDy=0;" edge="1" parent="1" source="klHyDaI2BTgXFFpjh4IZ-3" target="xx8JCHiFy8lJPD8X3YAm-40">
          <mxGeometry relative="1" as="geometry">
            <mxPoint x="160" y="250" as="sourcePoint" />
            <mxPoint x="190" y="250" as="targetPoint" />
          </mxGeometry>
        </mxCell>
      </root>
    </mxGraphModel>
  </diagram>
</mxfile>
